HIERARCHY
ROOT root
{
	OFFSET 0.000000 0.000000 0.000000
	CHANNELS 6 Xposition Yposition Zposition Zrotation Yrotation Xrotation
	JOINT lhip
	{
		OFFSET 0.058581 -0.082280 -0.017664
		CHANNELS 3 Zrotation Yrotation Xrotation
		JOINT lknee
		{
			OFFSET 0.043451 -0.386469 0.008037
			CHANNELS 3 Zrotation Yrotation Xrotation
			JOINT lankle
			{
				OFFSET -0.014790 -0.426874 -0.037428
				CHANNELS 3 Zrotation Yrotation Xrotation
				JOINT ltoe
				{
					OFFSET 0.041054 -0.060286 0.122042
					CHANNELS 3 Zrotation Yrotation Xrotation
					End Site
					{
						OFFSET 0.000000 0.000000 0.000000
					}
				}
			}
		}
	}
	JOINT rhip
	{
		OFFSET -0.060310 -0.090513 -0.013543
		CHANNELS 3 Zrotation Yrotation Xrotation
		JOINT rknee
		{
			OFFSET -0.043257 -0.383688 -0.004843
			CHANNELS 3 Zrotation Yrotation Xrotation
			JOINT rankle
			{
				OFFSET 0.019056 -0.420046 -0.034562
				CHANNELS 3 Zrotation Yrotation Xrotation
				JOINT rtoe
				{
					OFFSET -0.034840 -0.062106 0.130323
					CHANNELS 3 Zrotation Yrotation Xrotation
					End Site
					{
						OFFSET 0.000000 0.000000 0.000000
					}
				}
			}
		}
	}
	JOINT lowerback
	{
		OFFSET 0.004439 0.124404 -0.038385
		CHANNELS 3 Zrotation Yrotation Xrotation
		JOINT upperback
		{
			OFFSET 0.004488 0.137956 0.026820
			CHANNELS 3 Zrotation Yrotation Xrotation
			JOINT chest
			{
				OFFSET -0.002265 0.056032 0.002855
				CHANNELS 3 Zrotation Yrotation Xrotation
				JOINT lowerneck
				{
					OFFSET -0.013390 0.211636 -0.033468
					CHANNELS 3 Zrotation Yrotation Xrotation
					JOINT upperneck
					{
						OFFSET 0.010113 0.088937 0.050410
						CHANNELS 3 Zrotation Yrotation Xrotation
						End Site
						{
							OFFSET 0.000000 0.000000 0.000000
						}
					}
				}
				JOINT lclavicle
				{
					OFFSET 0.071702 0.114000 -0.018898
					CHANNELS 3 Zrotation Yrotation Xrotation
					JOINT lshoulder
					{
						OFFSET 0.122921 0.045205 -0.019046
						CHANNELS 3 Zrotation Yrotation Xrotation
						JOINT lelbow
						{
							OFFSET 0.255332 -0.015649 -0.022946
							CHANNELS 3 Zrotation Yrotation Xrotation
							JOINT lwrist
							{
								OFFSET 0.265709 0.012698 -0.007375
								CHANNELS 3 Zrotation Yrotation Xrotation
								End Site
								{
									OFFSET 0.000000 0.000000 0.000000
								}
							}
						}
					}
				}
				JOINT rclavicle
				{
					OFFSET -0.082954 0.112472 -0.023707
					CHANNELS 3 Zrotation Yrotation Xrotation
					JOINT rshoulder
					{
						OFFSET -0.113228 0.046853 -0.008472
						CHANNELS 3 Zrotation Yrotation Xrotation
						JOINT relbow
						{
							OFFSET -0.260127 -0.014369 -0.031269
							CHANNELS 3 Zrotation Yrotation Xrotation
							JOINT rwrist
							{
								OFFSET -0.269108 0.006794 -0.006027
								CHANNELS 3 Zrotation Yrotation Xrotation
								End Site
								{
									OFFSET 0.000000 0.000000 0.000000
								}
							}
						}
					}
				}
			}
		}
	}
}
MOTION
Frames: 14
Frame Time: 0.033333
0.215067 0.764390 0.988270 -45.928584 0.768965 87.540781 17.693283 5.248328 -18.566715 -4.372627 -0.865882 11.359283 -1.957843 4.217562 5.096160 0.000000 -0.000000 0.000000 -0.897237 -9.461752 -0.540063 10.369900 -11.257514 3.598137 -2.631064 -9.896612 -9.260215 0.000000 -0.000000 0.000000 0.742400 4.829644 18.970069 0.840236 -0.907362 -5.821028 2.133131 -0.368128 -1.470572 1.555167 -3.710286 -7.580390 -0.309796 -7.122847 9.059070 -27.654126 -1.017939 -0.425593 -50.373664 -8.570911 7.637688 19.026444 -22.771217 -4.895388 0.372724 -3.434401 -5.546833 22.519635 3.942402 0.864993 45.758368 5.826061 12.359208 -10.958071 32.641345 4.584055 9.123709 3.961405 -2.413483 
0.214945 0.763379 0.987595 -45.968101 0.637235 88.003520 17.620730 4.817507 -20.337882 -4.483226 -0.379852 14.158267 -3.277292 3.184042 2.463402 0.000000 -0.000000 0.000000 -1.876425 -10.640783 -1.424264 10.781423 -14.250322 5.068403 0.302571 -5.682061 -10.526495 0.000000 -0.000000 0.000000 -0.294850 5.326410 18.177155 1.492916 -1.303463 -5.269428 2.462974 -0.318395 -1.491976 0.179636 -2.993242 -8.533798 1.204132 -7.974292 9.876240 -26.631891 -0.650944 0.014018 -51.973356 -10.220550 3.453642 18.439872 -22.301822 -3.866764 -3.504293 -3.426398 -1.459978 21.897298 4.087353 1.037645 43.817753 6.843234 8.466415 -9.876902 37.645775 11.248065 14.203359 4.159551 0.582447 
0.215424 0.761882 0.987934 -46.374165 0.572795 88.013153 17.527758 3.998934 -21.233877 -4.714471 -0.569594 16.399998 -2.791152 3.419724 0.065297 0.000000 -0.000000 0.000000 -2.130418 -10.659190 -1.390978 10.816952 -14.122926 5.092662 0.961393 -5.388842 -10.497545 0.000000 -0.000000 0.000000 -0.427576 5.713885 18.260714 1.416757 -1.530853 -5.569618 2.339166 -0.384204 -1.046307 0.387054 -3.004710 -8.748450 1.324226 -7.868932 9.813271 -26.697629 -0.980407 0.086796 -51.889698 -9.955237 3.055309 18.236181 -22.432308 -3.856053 -1.930380 -3.996317 -1.429117 21.703317 4.580506 0.728349 41.426428 7.963429 7.604504 -12.109327 42.239875 11.262008 10.932035 4.817710 3.634936 
0.215921 0.757552 0.988080 -47.313056 0.556808 87.893645 17.200298 2.991641 -22.235746 -5.267843 -1.284644 19.894262 -2.236754 3.102868 -3.693050 0.000000 -0.000000 0.000000 -2.490030 -10.402669 -0.908945 11.001701 -13.319651 4.595484 1.531796 -5.591341 -10.312050 0.000000 -0.000000 0.000000 -0.064958 6.398381 18.523579 1.083438 -1.816107 -6.003723 1.843458 -0.286748 -0.622295 1.113668 -3.099255 -8.749463 0.982343 -7.958249 9.936922 -26.825425 -1.356413 -0.347305 -51.684727 -9.348903 2.687139 17.555444 -22.249229 -3.510149 1.265477 -4.644464 -1.387879 20.891434 5.112014 -0.315445 37.619409 10.653429 5.426605 -20.461474 48.612437 2.831570 3.243464 6.959978 4.556118 
0.215919 0.755857 0.988164 -47.657622 0.600122 87.869844 17.145293 2.752742 -22.537808 -5.492710 -1.516947 21.008800 -2.113660 2.792992 -4.818304 0.000000 -0.000000 0.000000 -2.472644 -10.307872 -0.811334 10.902661 -12.975361 4.514155 1.620447 -5.671768 -10.188007 0.000000 -0.000000 0.000000 0.029742 6.614405 18.409922 1.014050 -1.883204 -5.910376 1.668786 -0.211097 -0.550809 1.472005 -3.115890 -8.669099 0.807477 -7.882619 9.927704 -26.906251 -1.549960 -0.470771 -51.627039 -9.119334 2.659526 17.498241 -22.174783 -3.484054 2.260049 -4.800508 -1.685722 20.696899 5.458891 -0.694310 36.189320 11.847918 4.194567 -25.365428 50.122859 -2.428063 0.189559 7.737893 4.711058 
0.216138 0.752034 0.988487 -48.178650 0.637599 87.745340 16.835038 2.170384 -23.008285 -6.080314 -2.293048 23.027607 -1.916056 1.813387 -6.832371 0.000000 -0.000000 0.000000 -2.678227 -10.292772 -0.351460 10.893363 -12.386084 4.122814 1.881488 -5.708035 -9.936385 0.000000 -0.000000 0.000000 0.107020 6.991856 18.421784 0.903858 -2.104290 -6.020844 1.308784 0.032983 -0.396084 2.424695 -2.858954 -8.638469 0.425270 -7.797027 10.247378 -27.095390 -1.907211 -0.794144 -51.349903 -8.707578 2.414210 17.408952 -22.010683 -3.222751 3.522484 -5.274154 -1.922102 20.341466 6.319805 -1.721319 33.123513 14.873400 1.020122 -37.354817 50.953176 -14.850721 -5.159521 9.456134 5.173249 
0.216043 0.747301 0.988562 -48.739829 0.712148 87.609895 16.406204 1.999893 -23.416268 -6.990560 -3.410624 25.054443 -2.483817 0.274884 -8.416259 0.000000 -0.000000 0.000000 -2.995537 -10.362896 0.203354 10.969101 -11.919115 3.731106 2.139296 -5.416979 -9.619774 0.000000 -0.000000 0.000000 0.236553 7.404998 18.128887 0.792224 -2.262791 -5.756909 0.867769 0.247886 -0.358719 3.663841 -2.572763 -8.721303 0.019879 -7.908938 10.715529 -27.098382 -2.361042 -1.288883 -51.272381 -8.095673 2.469017 17.546567 -21.719978 -3.227081 4.997511 -5.334739 -2.349015 19.614150 7.517067 -3.168269 29.763822 18.866304 -3.158504 -49.113994 48.733079 -28.625160 -10.544975 9.613716 3.194354 
0.215954 0.741941 0.988306 -49.309545 0.847022 87.524186 15.907362 2.069326 -23.855578 -7.503759 -3.872688 27.032836 -2.849352 -0.813578 -9.456990 0.000000 -0.000000 0.000000 -3.155360 -10.325923 0.693496 10.814927 -11.519296 3.270821 2.354894 -5.217094 -9.056014 0.000000 -0.000000 0.000000 0.401602 7.771154 17.389132 0.668041 -2.394340 -4.864011 0.350166 0.455767 -0.556763 5.242939 -2.402657 -8.429017 -0.616452 -7.927848 11.104544 -27.005104 -2.747818 -1.758154 -51.166012 -7.524409 2.668645 17.833381 -21.685246 -3.032456 5.594474 -4.762858 -3.189973 18.404055 9.075063 -4.848037 25.979047 24.012655 -8.121178 -57.939195 44.002294 -42.139590 -15.759450 7.119132 -3.366190 
0.215654 0.735799 0.988085 -49.751381 0.906409 87.364939 15.214969 2.038160 -24.092428 -7.674750 -4.412737 28.741092 -3.234862 -1.474620 -10.349930 0.000000 -0.000000 0.000000 -3.383803 -10.152226 1.347025 10.570373 -11.308096 2.719907 2.622287 -5.091595 -8.706137 0.000000 -0.000000 0.000000 0.485877 8.035619 17.308314 0.375988 -2.508466 -5.035559 -0.066520 0.555698 -0.535951 7.004050 -2.305859 -8.088654 -1.222857 -8.187311 11.737886 -26.853850 -3.174965 -2.427827 -50.853586 -6.425852 3.047416 18.056908 -21.862237 -2.970459 6.486241 -3.837348 -3.691353 16.623410 10.666097 -7.149855 22.201289 29.237538 -13.188111 -64.180597 38.958231 -55.082442 -19.926224 1.573571 -13.871066 
0.215045 0.728642 0.987445 -50.086945 1.216571 87.361550 14.634033 2.463463 -24.369213 -6.496297 -4.232002 29.781518 -3.792559 -2.674025 -10.098588 0.000000 -0.000000 0.000000 -3.352140 -10.824134 1.669157 9.960230 -11.337392 2.684184 2.951763 -3.965034 -8.589422 0.000000 -0.000000 0.000000 0.604820 8.475200 17.260269 0.106413 -2.847439 -5.762289 -0.048063 0.593067 -0.342954 7.831733 -2.206378 -7.937135 -0.822878 -7.752599 12.550473 -26.921318 -3.515775 -3.382208 -50.743230 -5.163786 3.015142 18.627658 -21.974967 -2.370348 6.618315 -3.089298 -4.469952 15.035158 12.013317 -7.801030 16.182847 34.040413 -20.251951 -68.433621 37.147390 -66.004946 -31.701840 -8.678869 -23.466615 
0.215003 0.719973 0.987402 -50.438341 1.345873 87.370562 13.992070 2.301120 -23.973327 -6.115917 -4.447286 29.503525 -2.735189 -2.011600 -8.956366 0.000000 -0.000000 0.000000 -3.492374 -10.910717 2.066240 9.539406 -10.349585 2.343690 3.126452 -4.494056 -8.266278 0.000000 -0.000000 0.000000 0.976202 8.617931 17.132689 -0.566562 -2.766477 -6.156290 -0.168160 0.578839 -0.196687 8.467010 -3.631510 -7.519234 -0.179423 -6.802254 12.489738 -27.146489 -3.708090 -4.061188 -50.096636 -4.409725 3.600438 18.355634 -21.857800 -3.002639 8.680198 -2.868971 -4.093265 12.690908 12.820735 -8.959436 12.306928 34.620238 -21.582919 -71.308652 38.530172 -70.281811 -38.083560 -10.525200 -20.080564 
0.214633 0.709596 0.988163 -50.762222 1.476442 87.495745 13.312744 2.491260 -23.317721 -6.103896 -4.899649 28.941057 -1.683410 -1.181176 -8.960066 0.000000 -0.000000 0.000000 -3.830827 -11.458149 2.386752 9.185089 -9.329091 2.240979 3.858296 -4.945470 -8.069096 0.000000 -0.000000 0.000000 1.398240 8.452529 16.617334 -1.486380 -2.463692 -6.259449 -0.241494 0.601015 -0.145526 8.530774 -5.431894 -7.201990 1.171511 -5.009671 12.324953 -27.227814 -4.034940 -4.349951 -49.840285 -3.539664 3.495995 18.678088 -22.048431 -4.640117 9.060185 -2.860251 -2.945280 10.636953 12.980669 -9.349061 8.529898 31.573355 -21.516678 -70.633442 45.460655 -64.643935 -35.268330 -3.773554 -10.025946 
0.214884 0.699109 0.989475 -50.811475 1.501762 87.743940 12.568416 2.201131 -22.716981 -6.132226 -5.218845 28.214605 -0.783320 -0.218579 -9.336667 0.000000 -0.000000 0.000000 -4.046961 -11.670122 2.295425 8.451521 -8.374557 2.550379 4.652881 -5.961428 -8.022586 0.000000 -0.000000 0.000000 1.632670 8.122568 16.302537 -2.322955 -2.098150 -6.919282 -0.251273 0.538617 0.333926 8.771020 -7.143160 -7.009499 2.165588 -3.373026 11.842290 -27.705598 -3.785059 -4.324225 -49.216873 -3.655510 3.132133 18.294435 -21.958463 -5.380555 11.141805 -4.195547 -1.772244 9.082615 12.184044 -9.333356 3.636425 27.327450 -20.059024 -68.470016 54.962412 -54.756778 -35.776106 7.230171 1.560703 
0.214779 0.689262 0.991130 -50.361024 1.750583 87.629107 12.267409 1.560510 -21.542085 -6.297239 -5.664499 26.873521 -0.600413 0.204239 -9.112882 0.000000 -0.000000 0.000000 -3.796220 -11.946514 2.770352 7.331237 -7.845283 2.693743 5.446494 -6.959465 -8.088412 0.000000 -0.000000 0.000000 1.932660 7.668954 16.928704 -2.878960 -2.158695 -8.293294 -0.122959 0.706369 0.985108 9.123799 -8.368460 -6.918612 3.036307 -2.416069 11.521554 -27.866889 -3.323555 -4.412622 -49.024593 -4.265399 1.991702 17.077136 -21.286682 -4.713323 13.713749 -6.711326 -1.033134 6.736454 11.165878 -9.775347 -0.229781 23.147510 -17.840710 -67.530246 62.644731 -43.332807 -37.506424 22.596511 13.855932 
